<svg xmlns="http://www.w3.org/2000/svg" viewBox="0 0 150 150"><defs><style>.a{fill:#2c6bed;}</style></defs><title>Artboard 1 copy 11</title><path class="a" d="M150,14.6V47.9a6.3,6.3,0,0,1-10.7,4.4L130,43,66.6,106.5a6.3,6.3,0,0,1-8.8,0l-5.9-5.9a6.2,6.2,0,0,1,0-8.9l63.4-63.4L106,19a6.3,6.3,0,0,1,4.4-10.7h33.4A6.3,6.3,0,0,1,150,14.6ZM106,78.9,101.8,83a6.7,6.7,0,0,0-1.8,4.4V125H16.7V41.7H85.4a6,6,0,0,0,4.4-1.9L94,35.7A6.3,6.3,0,0,0,89.6,25H12.5A12.5,12.5,0,0,0,0,37.5v91.7a12.5,12.5,0,0,0,12.5,12.5h91.7a12.5,12.5,0,0,0,12.5-12.5V83.3A6.2,6.2,0,0,0,106,78.9Z"/></svg>